<?xml version="1.0" standalone="no"?>
<!DOCTYPE svg PUBLIC "-//W3C//DTD SVG 20010904//EN"
 "http://www.w3.org/TR/2001/REC-SVG-20010904/DTD/svg10.dtd">
<svg version="1.0" xmlns="http://www.w3.org/2000/svg"
 width="500.000000pt" height="500.000000pt" viewBox="0 0 500.000000 500.000000"
 preserveAspectRatio="xMidYMid meet">
<metadata>
Created by potrace 1.14, written by Peter Selinger 2001-2017
</metadata>
<g transform="translate(0.000000,500.000000) scale(0.100000,-0.100000)"
fill="#000000" stroke="none">
<path d="M2260 3959 c-526 -50 -958 -487 -1019 -1030 -13 -118 2 -306 34 -428
137 -513 588 -871 1100 -871 151 0 378 52 495 114 l45 24 52 -49 52 -49 319 0
c452 0 449 -6 164 282 l-185 188 51 97 c119 228 163 468 132 713 -81 620 -631
1068 -1240 1009z m285 -140 c190 -32 380 -132 526 -278 130 -131 227 -301 275
-486 23 -86 26 -122 27 -255 1 -129 -2 -169 -21 -237 -30 -116 -75 -224 -133
-320 -27 -46 -49 -94 -49 -110 0 -22 29 -57 152 -180 l153 -153 -205 0 -206 0
-59 60 c-33 33 -68 60 -78 60 -10 0 -50 -18 -90 -40 -106 -58 -189 -86 -312
-105 -263 -41 -510 20 -739 184 -181 129 -322 341 -388 584 -20 71 -22 106
-22 267 0 171 2 191 26 270 56 179 146 336 262 453 234 238 553 341 881 286z"/>
<path d="M2225 3452 c-142 -37 -257 -108 -345 -214 -283 -339 -177 -856 215
-1043 114 -55 160 -65 285 -65 76 0 116 5 163 21 119 40 117 51 -25 196 -67
68 -108 117 -102 122 78 71 207 181 212 181 4 0 55 -48 112 -106 110 -110 139
-130 169 -115 23 13 77 126 98 204 20 76 22 240 4 317 -7 30 -33 97 -57 149
-36 77 -57 106 -121 170 -134 133 -259 189 -438 197 -75 3 -118 -1 -170 -14z
m265 -123 c153 -35 314 -176 369 -323 32 -87 46 -209 32 -292 -19 -112 -18
-112 -128 -1 -78 77 -104 97 -127 97 -22 0 -61 -29 -179 -134 -217 -191 -207
-181 -207 -217 0 -27 13 -44 88 -115 l87 -83 -61 -1 c-166 -1 -327 87 -421
230 -203 309 -62 720 286 831 63 20 191 24 261 8z"/>
</g>
</svg>
